<svg xmlns="http://www.w3.org/2000/svg" viewBox="0 0 200 200" fill="none">
  <defs>
    <filter id="bee-shadow" x="0" y="0" width="200" height="200" filterUnits="userSpaceOnUse" color-interpolation-filters="sRGB">
      <feDropShadow dx="0" dy="12" stdDeviation="10" flood-color="#111827" flood-opacity=".32"/>
    </filter>
  </defs>
  <g filter="url(#bee-shadow)">
    <ellipse cx="118" cy="104" rx="46" ry="32" fill="#F59E0B"/>
    <circle cx="72" cy="104" r="22" fill="#FBBF24"/>
    <path d="M132 82c18-28 44-42 62-42-8 20-24 44-50 62" fill="#FBBF24" opacity=".78"/>
    <path d="M116 72c10-24 24-40 42-50-4 18-11 37-28 58" fill="#FBBF24" opacity=".56"/>
    <path d="M102 92h62" stroke="#111827" stroke-linecap="round" stroke-width="10"/>
    <path d="M96 114h66" stroke="#111827" stroke-linecap="round" stroke-width="10"/>
    <path d="m160 100 24 10-24 12" fill="#111827"/>
    <path d="M58 86 44 66M74 82l-6-22" stroke="#111827" stroke-linecap="round" stroke-width="5"/>
    <path d="M100 134 84 154M122 136l-2 24M142 132l16 20" stroke="#111827" stroke-linecap="round" stroke-width="5"/>
  </g>
</svg>
