<svg xmlns="http://www.w3.org/2000/svg" viewBox="0 0 600 400" fill="none">
  <g opacity=".14" stroke="#1F2937" stroke-width="2">
    <path d="M64 88h468M64 156h468M64 224h468M64 292h468"/>
  </g>
  <ellipse cx="150" cy="108" rx="62" ry="24" fill="#FFFFFF" stroke="#F59E0B" stroke-width="10"/>
  <path d="M88 108v128c0 13 28 24 62 24s62-11 62-24V108" fill="#FFFFFF" stroke="#F59E0B" stroke-width="10"/>
  <path d="M88 172c0 13 28 24 62 24s62-11 62-24M88 236c0 13 28 24 62 24s62-11 62-24" stroke="#F59E0B" stroke-width="10"/>
  <path d="M284 302V178c38-34 80-52 126-52 35 0 65 9 90 28v148H284Z" fill="#F59E0B" opacity=".16"/>
  <path d="M284 302V178c38-34 80-52 126-52 35 0 65 9 90 28" stroke="#F59E0B" stroke-linecap="round" stroke-linejoin="round" stroke-width="10"/>
  <rect x="322" y="208" width="46" height="94" rx="14" fill="#FBBF24"/>
  <rect x="384" y="170" width="46" height="132" rx="14" fill="#F59E0B"/>
  <rect x="446" y="144" width="46" height="158" rx="14" fill="#111827"/>
</svg>
